<mxfile host="app.diagrams.net" modified="2023-04-23T07:25:00.573Z" agent="Mozilla/5.0 (Windows NT 10.0; Win64; x64) AppleWebKit/537.36 (KHTML, like Gecko) Chrome/112.0.0.0 Safari/537.36" etag="k4DHIAyuzOp2XzXgd8eo" version="21.1.4" type="github">
  <diagram name="第 1 页" id="-K9z4IjdYGVDM4m_XEil">
    <mxGraphModel dx="984" dy="689" grid="1" gridSize="10" guides="1" tooltips="1" connect="1" arrows="1" fold="1" page="1" pageScale="1" pageWidth="827" pageHeight="1169" math="0" shadow="0">
      <root>
        <mxCell id="0" />
        <mxCell id="1" parent="0" />
        <mxCell id="7RoOmJsNNIqu-HWK0Ztd-3" style="edgeStyle=orthogonalEdgeStyle;rounded=0;orthogonalLoop=1;jettySize=auto;html=1;exitX=0.5;exitY=1;exitDx=0;exitDy=0;entryX=0.5;entryY=0;entryDx=0;entryDy=0;" edge="1" parent="1" source="7RoOmJsNNIqu-HWK0Ztd-1" target="7RoOmJsNNIqu-HWK0Ztd-2">
          <mxGeometry relative="1" as="geometry" />
        </mxCell>
        <mxCell id="7RoOmJsNNIqu-HWK0Ztd-5" style="edgeStyle=orthogonalEdgeStyle;rounded=0;orthogonalLoop=1;jettySize=auto;html=1;exitX=0.5;exitY=1;exitDx=0;exitDy=0;entryX=0.5;entryY=0;entryDx=0;entryDy=0;" edge="1" parent="1" source="7RoOmJsNNIqu-HWK0Ztd-1" target="7RoOmJsNNIqu-HWK0Ztd-4">
          <mxGeometry relative="1" as="geometry" />
        </mxCell>
        <mxCell id="7RoOmJsNNIqu-HWK0Ztd-1" value="&lt;font style=&quot;font-size: 18px;&quot;&gt;command&lt;/font&gt;" style="rounded=1;whiteSpace=wrap;html=1;" vertex="1" parent="1">
          <mxGeometry x="320" y="200" width="100" height="50" as="geometry" />
        </mxCell>
        <mxCell id="7RoOmJsNNIqu-HWK0Ztd-2" value="&lt;font style=&quot;font-size: 14px;&quot;&gt;cmd_name: &quot;findObject&quot;&lt;/font&gt;" style="rounded=1;whiteSpace=wrap;html=1;" vertex="1" parent="1">
          <mxGeometry x="160" y="310" width="170" height="60" as="geometry" />
        </mxCell>
        <mxCell id="7RoOmJsNNIqu-HWK0Ztd-7" style="edgeStyle=orthogonalEdgeStyle;rounded=0;orthogonalLoop=1;jettySize=auto;html=1;exitX=0.5;exitY=1;exitDx=0;exitDy=0;entryX=0.5;entryY=0;entryDx=0;entryDy=0;" edge="1" parent="1" source="7RoOmJsNNIqu-HWK0Ztd-4" target="7RoOmJsNNIqu-HWK0Ztd-6">
          <mxGeometry relative="1" as="geometry" />
        </mxCell>
        <mxCell id="7RoOmJsNNIqu-HWK0Ztd-9" style="edgeStyle=orthogonalEdgeStyle;rounded=0;orthogonalLoop=1;jettySize=auto;html=1;exitX=0.5;exitY=1;exitDx=0;exitDy=0;" edge="1" parent="1" source="7RoOmJsNNIqu-HWK0Ztd-4" target="7RoOmJsNNIqu-HWK0Ztd-8">
          <mxGeometry relative="1" as="geometry" />
        </mxCell>
        <mxCell id="7RoOmJsNNIqu-HWK0Ztd-11" style="edgeStyle=orthogonalEdgeStyle;rounded=0;orthogonalLoop=1;jettySize=auto;html=1;exitX=0.5;exitY=1;exitDx=0;exitDy=0;entryX=0.5;entryY=0;entryDx=0;entryDy=0;" edge="1" parent="1" source="7RoOmJsNNIqu-HWK0Ztd-4" target="7RoOmJsNNIqu-HWK0Ztd-10">
          <mxGeometry relative="1" as="geometry" />
        </mxCell>
        <mxCell id="7RoOmJsNNIqu-HWK0Ztd-13" style="edgeStyle=orthogonalEdgeStyle;rounded=0;orthogonalLoop=1;jettySize=auto;html=1;exitX=0.5;exitY=1;exitDx=0;exitDy=0;entryX=0.5;entryY=0;entryDx=0;entryDy=0;" edge="1" parent="1" source="7RoOmJsNNIqu-HWK0Ztd-4" target="7RoOmJsNNIqu-HWK0Ztd-12">
          <mxGeometry relative="1" as="geometry" />
        </mxCell>
        <mxCell id="7RoOmJsNNIqu-HWK0Ztd-4" value="&lt;font style=&quot;font-size: 14px;&quot;&gt;parameters:&lt;/font&gt;" style="rounded=1;whiteSpace=wrap;html=1;" vertex="1" parent="1">
          <mxGeometry x="450" y="310" width="120" height="60" as="geometry" />
        </mxCell>
        <mxCell id="7RoOmJsNNIqu-HWK0Ztd-6" value="&lt;font style=&quot;font-size: 14px;&quot;&gt;set: &quot;Item.allInstance&quot;&lt;/font&gt;" style="rounded=1;whiteSpace=wrap;html=1;" vertex="1" parent="1">
          <mxGeometry x="270" y="470" width="160" height="60" as="geometry" />
        </mxCell>
        <mxCell id="7RoOmJsNNIqu-HWK0Ztd-8" value="&lt;font style=&quot;font-size: 14px;&quot;&gt;basis:{property:&quot;Barcode&quot;, value: &quot;barcode&quot;}&lt;/font&gt;" style="rounded=1;whiteSpace=wrap;html=1;" vertex="1" parent="1">
          <mxGeometry x="480" y="470" width="290" height="60" as="geometry" />
        </mxCell>
        <mxCell id="7RoOmJsNNIqu-HWK0Ztd-10" value="&lt;font style=&quot;font-size: 14px;&quot;&gt;type: &quot;Item&quot;&lt;/font&gt;" style="rounded=1;whiteSpace=wrap;html=1;" vertex="1" parent="1">
          <mxGeometry x="810" y="470" width="120" height="60" as="geometry" />
        </mxCell>
        <mxCell id="7RoOmJsNNIqu-HWK0Ztd-12" value="&lt;font style=&quot;font-size: 14px;&quot;&gt;name: &quot;item&quot;&lt;/font&gt;" style="rounded=1;whiteSpace=wrap;html=1;" vertex="1" parent="1">
          <mxGeometry x="970" y="470" width="120" height="60" as="geometry" />
        </mxCell>
      </root>
    </mxGraphModel>
  </diagram>
</mxfile>
